<svg width="40" height="40" viewBox="0 0 40 40" xmlns="http://www.w3.org/2000/svg"><g fill-rule="nonzero" fill="none"><path d="M20 0C8.947 0 0 8.947 0 20s8.947 20 20 20 20-8.947 20-20S31.053 0 20 0z" fill="#000"></path><path d="M20 4C11.146 4 4 11.146 4 20s7.146 16 16 16 16-7.146 16-16S28.854 4 20 4zm0 28c-6.656 0-12-5.344-12-12S13.344 8 20 8s12 5.344 12 12-5.344 12-12 12zm0-20c-4.455 0-8 3.545-8 8s3.545 8 8 8 8-3.545 8-8-3.545-8-8-8zm0 12c-2.266 0-4-1.734-4-4s1.734-4 4-4 4 1.734 4 4-1.734 4-4 4z" fill="#FFF"></path><path d="M39 5s-.602 2.301-2.199 3.801c-1.602 1.598-8 2.398-8 2.398s.801-6.5 2.398-8C32.699 1.602 35 1 35 1v4h4z" fill="#1976D2"></path><path d="M38.699 1.301a.961.961 0 0 0-1.398 0l-18 18a.961.961 0 0 0 0 1.398c.199.199.5.301.699.301.199 0 .5-.102.699-.301l18-18a.96.96 0 0 0 0-1.398z" fill="#37474F"></path><path fill="#42A5F5" d="M34.977 3.727l1.414 1.414-5.867 5.871-1.414-1.414z"></path></g></svg>
