<svg width="4096" height="2350" fill="none" xmlns="http://www.w3.org/2000/svg"><path fill-rule="evenodd" clip-rule="evenodd" d="m1821.24 499.75.26 37.75 37.75.262 37.75.262V462h-76.02l.26 37.75zm117.76.262v38.012l37.75-.262 37.75-.262.26-37.75.26-37.75H1939v38.012zm-117.33 79.655c-.37.366-.67 17.466-.67 38V655h76v-76h-37.33c-20.54 0-37.64.3-38 .667zM1939 617v38h76v-76h-76v38z" fill="#030405"/><path fill-rule="evenodd" clip-rule="evenodd" d="M2726 318.374c-6.87 4-26 15.067-42.5 24.594L2641 367.51c-6.87 3.971-22.85 13.196-35.5 20.499-12.65 7.304-34.7 20.038-49 28.298-29.7 17.16-48.71 28.128-76.5 44.155-10.72 6.185-31.42 18.135-46 26.555-32.21 18.61-51.36 29.66-77 44.44a44564.81 44564.81 0 0 0-29 16.737c-8.52 4.93-70.36 40.652-129.5 74.807-12.1 6.988-36.62 21.138-54.5 31.444a60587.081 60587.081 0 0 0-52 30.025c-10.72 6.207-28.05 16.223-38.5 22.258s-29.12 16.82-41.5 23.966c-12.37 7.147-31.72 18.318-43 24.825-11.27 6.506-26.96 15.576-34.86 20.155-14.08 8.159-16.77 9.231-18.69 7.436-.52-.49-20.07-11.899-43.45-25.353-44.35-25.527-55.92-32.209-136.5-78.792-26.95-15.582-52.77-30.45-57.38-33.041l-8.39-4.711-11.61 6.742a12966.62 12966.62 0 0 1-28.12 16.257c-19.13 11.034-52.32 30.194-84.75 48.934a69784.213 69784.213 0 0 1-77.75 44.87c-8.25 4.751-28.5 16.449-45 25.995-16.5 9.547-31.91 18.438-34.25 19.759-2.34 1.321-4.23 2.7-4.21 3.065.02.366 11.38 7.161 25.25 15.1 13.87 7.938 36.46 20.934 50.21 28.878 13.75 7.944 35.13 20.288 47.5 27.431 12.38 7.142 31.28 18.068 42 24.279 20.9 12.101 74 42.734 101 58.263 9.08 5.22 23.25 13.414 31.5 18.211 8.25 4.796 34.35 19.874 58 33.503 23.65 13.63 49.75 28.7 58 33.47 8.25 4.78 25.58 14.79 38.5 22.26 12.93 7.46 36.55 21.11 52.5 30.33 15.95 9.22 29.45 16.76 30 16.76.55 0 6.85-3.38 14-7.52 14.77-8.56 43.31-25.03 90.5-52.25 33.82-19.51 68.81-39.72 94.5-54.59 8.25-4.772 26.93-15.557 41.5-23.965 14.58-8.407 34.83-20.098 45-25.979 10.18-5.881 27.73-16.008 39-22.504 11.28-6.496 28.83-16.626 39-22.511a152295.2 152295.2 0 0 1 41-23.695c12.38-7.147 31.5-18.194 42.5-24.549s47.45-27.393 81-46.751c33.55-19.358 71.58-41.307 84.5-48.775 12.93-7.468 30.25-17.478 38.5-22.244 26.07-15.062 59.18-34.176 84-48.494 21.17-12.207 44.53-25.696 76.75-44.315l9.75-5.634V476.272c0-90.899-.34-165.249-.75-165.221-.41.028-6.37 3.324-13.25 7.323z" fill="#1C3942"/><path fill-rule="evenodd" clip-rule="evenodd" d="M669.001 1507.68c-55.713 4.14-103.669 25.21-139.861 61.45-29.274 29.31-47.163 63.8-55.41 106.84-1.949 10.17-2.209 14.78-2.2 39.03.011 28.77.602 34.54 5.585 54.5 19.121 76.6 83.814 135.39 164.464 149.46 50.408 8.8 99.925 2.41 142.956-18.43 54.591-26.44 93.482-74.7 108.014-134.03 7.218-29.47 7.699-65.61 1.292-97-13.465-65.96-60.048-121.12-123.683-146.44-30.088-11.98-68.445-17.81-101.157-15.38zm2873.999-.04c-37.56 3.47-60.54 9.49-87.24 22.85-36.97 18.49-66.19 46.32-86.11 82.01-27.62 49.48-33.31 115.74-14.7 171.34 24.78 74.04 87.49 124.92 168.6 136.78 16.6 2.43 50.53 2.44 66.9.02 14.88-2.2 35.48-7.43 47.39-12.03 25.62-9.89 44.99-22.41 64.66-41.79l14-13.79-21.99-22.02c-12.1-12.1-22.47-22.01-23.06-22.01-.59 0-3.2 2.47-5.81 5.49-5.45 6.32-18.29 17.28-27.38 23.38-43.14 28.97-111.13 29.26-158.71.68-33.39-20.05-56.3-51.44-65-89.05-5.33-23.03-4.31-56.09 2.42-78 14.24-46.43 49.87-81.38 96.68-94.85 16.11-4.63 26.42-5.99 45.35-5.99 26.71.01 45.24 3.91 65.55 13.79 13.47 6.56 24.85 14.81 37.55 27.24l9.6 9.39 22.16-22.17 22.16-22.16-7.6-8.37c-27.49-30.28-66.07-50.47-110.42-57.79-17.99-2.97-41.27-4.22-55-2.95zm-3447.008 4.61c-.008 2.03-.943 28.77-3.998 114.25-2.711 75.87-5.133 107.59-11.07 144.99-7.905 49.8-18.65 74.83-35.72 83.21-5.528 2.71-6.278 2.81-24.453 3.14l-18.75.35L2 1879.84c-.001 11.91-.3 44.95-.664 73.41L.674 2005H66v-85h307v85h64v-147h-57v-348H96l-.01 2.25zm883.471-1c-.261.69-.359 92.82-.218 204.75l.256 203.5h64.999l.5-133.3.5-133.3 16.6 28.3c9.14 15.56 28.64 48.77 43.35 73.8 14.71 25.02 36.04 61.36 47.4 80.75l20.65 35.26 17.49-.26 17.48-.25 13.52-23.1c7.43-12.71 36.24-62.06 64.01-109.67l50.5-86.57.25 134.43.26 134.44 32.74-.27 32.75-.26v-409l-27-.25-27-.25-14.66 25.25c-8.06 13.89-23.53 40.55-34.36 59.25-10.84 18.7-27.93 48.17-37.98 65.5-27.97 48.2-61.33 105.71-65.73 113.34-3.58 6.18-4.08 6.66-5.22 5-.69-1.01-22.33-37.84-48.08-81.84-25.76-44-60.52-103.4-77.26-132-16.74-28.6-30.89-52.56-31.45-53.25-.76-.94-7.49-1.25-27.41-1.25-20.21 0-26.523.29-26.887 1.25zm689.997 0c-.26.69-.36 92.82-.22 204.75l.26 203.5 28.06.26 28.06.27 71.39-92.27c39.27-50.74 89.64-115.84 111.94-144.65l40.55-52.39.5 144.39.5 144.39 33.25.26 33.25.27v-410.06l-28.22.26-28.21.27-27.08 35c-14.89 19.25-48.62 62.9-74.95 97-26.34 34.1-64.57 83.59-84.96 109.98l-37.08 47.97-.25-145.22-.26-145.23h-33.02c-25.51 0-33.14.28-33.51 1.25zM2130 1715v205h67v-177h211.99l.26 88.25.25 88.25 33.25.26 33.25.27v-410.06l-33.25.27-33.25.26-.26 85.25-.25 85.25H2197v-171h-67v205zm459 0v205l92.75-.02c92.36-.01 113.47-.58 132.75-3.6 40.89-6.39 69.96-21.65 88.43-46.41 13.79-18.49 20.34-39.83 20.39-66.47.09-43.5-17.15-74.28-52.62-93.96l-6.8-3.77 4.3-3.58c18.57-15.47 30.17-35.41 34.35-59.03 1.97-11.09 1.98-32.18.03-43.16-8.3-46.64-43.64-76.7-101.58-86.41-17.05-2.86-42.21-3.56-127.75-3.58L2589 1510v205zm419.46-203.75c-.26.69-.36 92.82-.22 204.75l.26 203.5h297l.26-30.75.27-30.75H3076v-115h197v-62h-197v-108h221v-63h-144.03c-114.31 0-144.13.26-144.51 1.25zm752.99.01c-.26.69-.36 14.76-.21 31.25l.26 29.99 66.75.26 66.74.25.26 173.25.25 173.24 33.25.26 33.25.27V1573h134v-63h-167.03c-133.48 0-167.13.25-167.52 1.26zm-3047.322 61.65c52.344 9.55 92.823 44.08 109.199 93.17 5.904 17.69 7.08 25.81 7.08 48.92 0 22.89-1.15 30.97-6.911 48.58-15.314 46.79-54.438 81.78-103.371 92.44-52.613 11.46-106.308-3.12-141.665-38.48-20.443-20.44-33.357-45.58-39.064-76.04-2.3-12.28-2.314-39.55-.028-52.5 5.318-30.12 18.472-55.86 39.065-76.46 23.635-23.63 54.262-37.83 89.603-41.52 11.891-1.25 33.834-.35 46.092 1.89zm2074.872-.5c24.68 5.81 39.12 16.79 45.16 34.34 1.95 5.65 2.33 8.78 2.33 19.25.01 7.74-.53 14.4-1.4 17.5-5.14 18.26-18.62 29.91-42.02 36.33l-9.57 2.63-63.75.31-63.75.31v-113.19l62.75.38c55.6.33 63.6.58 70.25 2.14zM313.001 1715.5V1858h-96c-52.8 0-96-.24-96-.53 0-.28 1.61-3.72 3.577-7.62 17.571-34.89 26.506-99.49 30.41-219.85.562-17.33 1.295-37.24 1.629-44.25l.607-12.75h155.777v142.5zm2486.369 28c34.97 5.27 52.81 19.86 56.68 46.37 2.98 20.45-2.67 40.1-14.68 51.08-8.61 7.87-17.88 12.27-34.37 16.31-8.13 2-11.61 2.11-79.75 2.47l-71.25.38V1742l66.75.01c53.98 0 68.64.29 76.62 1.49zM446.362 2180.9c-9.681 2.77-17.023 6.85-23.907 13.29-8.114 7.59-13.708 16.47-17.49 27.76-4.372 13.05-5.263 22.1-4.716 47.93.443 20.92.682 23.29 3.181 31.62 7.597 25.3 21.801 40.22 43.91 46.1 13.064 3.48 36.318.9 47.986-5.32 7.35-3.91 17.778-14.56 21.515-21.96 3.532-7 7.16-19.19 7.16-24.05V2293h-15.909l-.624 3.75c-1.176 7.06-4.622 16.75-7.647 21.5-5.809 9.11-14.325 13.9-28.354 15.93-20.172 2.91-36.1-4.48-45.987-21.35-4.884-8.33-7.457-17.67-8.631-31.33-1.215-14.14-.371-38.16 1.685-47.99 3.067-14.66 12.667-29.04 23.224-34.78 16.175-8.81 39.513-6.73 51.921 4.61 7.379 6.74 10.723 13.75 13.802 28.91.553 2.72.635 2.75 8.539 2.75h7.981v-3.27c0-1.8-.931-6.63-2.068-10.73-5.9-21.29-19.288-34.85-39.528-40.02-10.046-2.57-27.204-2.61-36.043-.08zm457.569.45c-21.056 6.23-34.87 21.25-42.632 46.35-2.671 8.64-2.721 9.29-2.759 35.8-.036 24.76.144 27.68 2.165 35.2 3.412 12.7 8.732 22.5 16.937 31.22 12.84 13.63 25.794 19.08 45.359 19.08 35.009 0 58.757-22.77 63.947-61.32 1.36-10.1 1.355-37.31-.008-47.36-2.586-19.07-8.708-32.27-20.355-43.88-12.767-12.74-24.842-17.44-44.584-17.37-7.871.03-12.396.6-18.07 2.28zm1661.859-.8c-18.66 4.52-34.27 18.88-42.21 38.81-4.55 11.43-5.71 18.74-6.25 39.64-.98 37.44 4.47 55.79 21.67 73.01 12.05 12.06 24.49 16.99 42.85 16.99 12.87 0 18.67-1.24 29.05-6.19 15.88-7.58 27.16-22.13 33.19-42.81 3.1-10.6 3.99-50.88 1.44-64.52-5.37-28.62-21.38-47.77-45.51-54.42-8.87-2.44-25.24-2.69-34.23-.51zm-1825.539 1.22-28.25.26V2347h16v-65.84l28.75-.39c26.657-.36 29.253-.55 35.664-2.67 21.447-7.08 32.586-22.9 32.586-46.28 0-25.25-14.241-43.18-38.292-48.21-9.589-2-13.397-2.15-46.458-1.84zm-192.25 7.23v7h56v151h16v-151h56v-14h-128v7zM1032 2264.5v82.5h16.58l44.96-67.46 44.96-67.45.26 67.45.25 67.46H1156v-165l-8.25.03-8.25.02-45 67.5-45 67.49-.26-67.52-.25-67.52H1032v82.5zm156-75.5v7h56v151h16v-151h56v-14h-128v7zm164 75.5v82.5h104v-13.98l-43.75-.26-43.75-.26v-63l38.25-.26 38.25-.26v-13.96l-38.25-.26-38.25-.26-.26-29.25-.27-29.25H1456v-14h-104v82.5zm165.59-75.25c-.31 3.99-1.06 16.47-1.64 27.75-3.44 65.93-5.02 81.77-9.58 96.22-3.34 10.58-9.25 17-17.17 18.67-2.91.61-6.63 1.11-8.25 1.11H1478v14.24l9.25-.43c19.84-.93 30.12-10.86 36.21-35 3.95-15.65 6.02-37.68 8.59-91.31.58-12.1 1.24-22.56 1.47-23.25.32-.97 7.91-1.25 33.45-1.25H1600v151h16v-165h-97.83l-.58 7.25zM1666 2264.5v82.5h33.34c29.69 0 34.17-.21 40.9-1.94 22.25-5.68 34.37-19.38 36.35-41.06 2.18-23.86-11.54-42.96-35.24-49.05-6.91-1.78-10.94-2.01-33.6-1.97l-25.75.04V2182h-16v82.5zm153 .04v82.54l8.25-.29 8.25-.29.26-38.75.26-38.75H1926v78h17v-165h-17v73h-90v-73h-17v82.54zm216.33-71.32c-2.29 6.2-8.97 23.88-14.83 39.28-5.87 15.4-13.73 36.1-17.47 46-15.08 39.85-23.91 63.14-24.92 65.75l-1.06 2.75h17.55l1.29-3.75c.71-2.06 2.79-7.8 4.63-12.75 1.84-4.95 4.92-13.28 6.84-18.5l3.49-9.5 36.46-.26 36.47-.26 4.7 12.76c2.58 7.02 6.29 17.15 8.23 22.51l3.53 9.75h8.38c4.61 0 8.38-.36 8.38-.79 0-.44-2.64-7.75-5.87-16.25-7.1-18.71-25.96-68.48-43.2-113.96l-12.69-33.5-7.87-.28-7.87-.27-4.17 11.27zm149.24-10.06c-12.23 2.34-26.58 11.88-32.15 21.39-8.28 14.12-9.31 34.55-2.46 48.84 4.76 9.94 11.67 15.93 26.86 23.27.18.08-8.26 15.74-18.75 34.79-10.49 19.05-19.07 34.84-19.07 35.09s3.95.46 8.78.46h8.78l17.67-32.75 17.67-32.75 22.55-.27 22.55-.27V2347h16v-165l-31.75.11c-17.46.06-33.97.54-36.68 1.05zM2370 2264.5v82.5h16v-76h20.9l33.35 37.75 33.35 37.75 10.2.28c5.61.16 10.2.05 10.2-.24 0-.45-32.28-37.87-62.78-72.78l-9.38-10.74 1.83-2.31c1.75-2.2 27.6-33.06 53.25-63.58 6.65-7.9 12.08-14.54 12.08-14.75 0-.21-4.61-.37-10.25-.36l-10.25.03-14.5 17.17c-7.97 9.44-22.05 26.08-31.27 36.97l-16.78 19.81H2386v-74h-16v82.5zm321-.03V2347h17.32l-.64-68.25-.64-68.25 2.58 6c1.42 3.3 6.85 16.12 12.08 28.5 17.42 41.25 28.47 67.34 35.78 84.5l7.24 17 6.49.29 6.49.29 5.09-12.29c2.8-6.76 10.92-26.02 18.03-42.79 7.12-16.78 17.78-41.98 23.69-56 5.91-14.03 10.86-25.63 11-25.79.13-.17.01 30.55-.28 68.25l-.53 68.54h16.3v-165h-20.5l-7.2 17.25c-3.96 9.49-13.55 32.32-21.31 50.75-7.76 18.42-17.79 42.36-22.3 53.18-4.5 10.83-8.46 19.38-8.78 19-.33-.37-6.51-14.86-13.75-32.18-7.23-17.33-20.31-48.6-29.07-69.5l-15.93-38-10.58-.28-10.58-.29v82.54zm210 .03v82.5h17v-151h90v151h16v-165h-123v82.5zm218.5-81.25c-.24.69-5.13 13.62-10.86 28.75-5.73 15.12-13.13 34.7-16.45 43.5-3.32 8.8-10.83 28.6-16.68 44-14.96 39.36-17.51 46.19-17.51 46.89 0 .33 3.78.61 8.39.61h8.39l6.72-18.15c3.7-9.98 7.39-20.11 8.21-22.51l1.49-4.36 36.5.26 36.5.26 8.24 22 8.25 22 8.64.29 8.65.29-2.88-7.79c-1.58-4.28-7.24-19.27-12.58-33.29-14.6-38.38-22.38-58.88-33-87-5.29-14.03-10.61-28.09-11.82-31.25l-2.19-5.75h-7.79c-5.32 0-7.92.39-8.22 1.25zm110.5 81.25v82.5h17v-78h90v78h17v-165h-17v73h-90v-73h-17v82.5zm175 .04v82.54l8.23-.29 8.23-.29 45.02-67.5 45.02-67.5.26 67.79.25 67.79 8.25-.29 8.24-.29.26-82.25.25-82.25h-16.8l-44.86 67.19-44.85 67.19-.26-67.19-.25-67.19H3405v82.54zm206.19-80.52c-9.81 2.57-16.58 6.36-23.2 12.98-9.12 9.11-13 19.67-12.98 35.3.03 21.44 8.55 33.69 30.81 44.35.52.25-3.15 7.16-19.81 37.35-8.65 15.67-16.26 29.51-16.9 30.75l-1.18 2.25h17.89l8.77-16.25c4.82-8.94 10.49-19.4 12.59-23.25 2.1-3.85 6.17-11.39 9.04-16.75l5.22-9.75H3666v66h17v-165l-32.25.05c-28.45.05-33.11.29-39.56 1.97zm-2677.408 10.49c16.618 3.92 27.209 14.07 33.388 31.99 6.022 17.47 6.16 56.65.261 74.37-6.544 19.65-18.502 30.46-36.88 33.31-26.144 4.07-47.099-11.47-54.185-40.18-2.666-10.8-2.673-47.84-.011-59.5 6.916-30.3 30.091-46.43 57.427-39.99zm1657.788-.42c17.96 3.31 30.84 16.58 36.67 37.77 1.87 6.8 2.1 10.33 2.1 32.14 0 22.03-.21 25.29-2.16 32.39-3 10.91-6.65 17.93-12.79 24.56-6.16 6.65-12.64 10.43-21.48 12.51-11.66 2.75-24.24 1.2-34.15-4.19-5.93-3.22-14.92-12.69-18.19-19.13-1.31-2.58-3.43-8.05-4.72-12.16-2.22-7.06-2.35-8.96-2.35-33.98 0-25.02.13-26.92 2.35-33.98 3.32-10.59 6.59-16.55 12.49-22.78 11.03-11.67 25.62-16.21 42.23-13.15zm-1811.397 3.04c15.833 3.4 25.181 12.59 27.933 27.48 2.747 14.86-2.521 28.42-13.926 35.85-7.666 4.99-13.585 5.86-40.679 5.95l-25 .09-.263-35.25-.263-35.25h23.464c13.67 0 25.663.47 28.734 1.13zM2237 2231.5v35.5l-17.75-.01c-30.98-.01-40.72-2.24-48.77-11.15-6.47-7.16-7.98-11.78-7.96-24.34.02-9.98.29-11.53 2.81-16.72 1.54-3.15 4.61-7.28 6.84-9.19 9.09-7.79 16.6-9.4 44.08-9.51l20.75-.08v35.5zm1429 .13v35.64l-23.75-.51c-26.39-.55-30.76-1.45-39.52-8.14-8.73-6.65-13.17-20.5-10.88-33.92 1.38-8.11 3.91-13.39 8.68-18.17 8.39-8.38 16.78-10.34 44.72-10.45l20.75-.08v35.63zm-1598.39 26.87c2.03 5.5 5.19 13.98 7.04 18.85 1.84 4.87 3.35 9.03 3.35 9.25 0 .22-13.72.4-30.5.4-16.77 0-30.5-.37-30.5-.81 0-.7 19.76-54.66 27.67-75.57l2.61-6.88 8.32 22.38c4.58 12.31 9.98 26.88 12.01 32.38zm1075.81-12.52c8.02 21.7 14.58 39.81 14.58 40.24 0 .43-13.76.78-30.58.78-17.81 0-30.45-.38-30.25-.9 22.27-60.43 30.45-81.75 30.99-80.78.37.67 7.24 18.96 15.26 40.66zm-1410.89 22.11c16.63 3.08 26.37 13.41 27.27 28.96.61 10.52-1.47 17.25-7.32 23.76-9.02 10.04-17.23 12.11-48.23 12.16l-22.25.03v-66h22.32c12.27 0 24.97.49 28.21 1.09zM1903 10.406c-9.62 5.645-54.4 31.552-99.5 57.572-45.1 26.021-91.9 53.036-104 60.035-19.82 11.466-72 41.591-126 72.756a157146.95 157146.95 0 0 0-83.5 48.226 25706.58 25706.58 0 0 1-42.5 24.503c-13.2 7.594-29.17 16.823-35.5 20.51-6.32 3.687-21.06 12.205-32.75 18.93L1358 325.164v165.418c0 90.98.2 165.418.45 165.418s11.83-6.574 25.75-14.609c13.92-8.036 35.88-20.704 48.8-28.153 12.93-7.448 28.68-16.556 35-20.238 6.33-3.682 22.08-12.791 35-20.241 30.2-17.408 81.37-46.935 114.5-66.069 14.3-8.259 32.75-18.911 41-23.67 23.82-13.743 54.45-31.431 74.5-43.02 39.81-23.01 73.4-42.395 126.5-72.991 20.35-11.726 42.26-24.4 48.69-28.165 6.42-3.764 12.17-6.844 12.76-6.844 1.04 0 7.16 3.464 56.55 31.994l43 24.835c20.95 12.099 50.63 29.24 78.5 45.339 9.08 5.242 25.5 14.723 36.5 21.069 11 6.346 23.14 13.364 26.98 15.595l6.97 4.057 5.53-3.118c3.03-1.716 15.42-8.845 27.52-15.844 12.1-6.998 39.33-22.72 60.5-34.936 21.18-12.217 48.85-28.185 61.5-35.486 12.65-7.3 40.33-23.271 61.5-35.49 76.33-44.044 70.32-40.362 68.31-41.851-1-.735-12.16-7.29-24.81-14.568-28.73-16.528-121.3-69.95-192.5-111.088-6.87-3.973-34.55-19.949-61.5-35.503-26.95-15.554-54.62-31.531-61.5-35.505-31.73-18.343-107.48-62.063-146-84.274-23.37-13.477-43.39-25.116-44.47-25.865-1.09-.748-2.21-1.329-2.5-1.289-.29.04-8.4 4.69-18.03 10.334z" fill="#030405"/></svg>